<?xml version="1.0" encoding="utf-8"?>
<!-- Generator: Adobe Illustrator 16.0.0, SVG Export Plug-In . SVG Version: 6.00 Build 0)  -->
<!DOCTYPE svg PUBLIC "-//W3C//DTD SVG 1.1//EN" "http://www.w3.org/Graphics/SVG/1.1/DTD/svg11.dtd">
<svg version="1.1" xmlns="http://www.w3.org/2000/svg" xmlns:xlink="http://www.w3.org/1999/xlink" x="0px" y="0px" width="960px"
	 height="560px" viewBox="0 0 960 560" enable-background="new 0 0 960 560" xml:space="preserve">
<g id="Phone" display="none">
	<g display="inline">
		<defs>
			<path id="SVGID_1_" d="M437.825,182.145l-8.054,7.03l0.218,0.188c-2.695,2.992-4.96,6.449-6.638,10.183
				c-1.554,3.544-2.521,6.929-2.963,10.313c-3.77,27.191,10.531,52.045,49.358,85.744c53.673,46.613,96.907,43.084,98.774,42.924
				c4.061-0.422,7.953-1.264,11.911-2.601c4.263-1.452,8.229-3.413,11.671-5.752l0.175,0.146l8.163-6.958
				c5.891-5.128,6.064-13.306,0.393-18.259l-28.602-24.839c-5.687-4.924-15.128-4.779-21.025,0.349l-14.395,12.507
				c-0.923-0.436-1.859-0.886-2.848-1.365c-9.1-4.387-21.549-10.386-34.658-21.774c-13.131-11.402-20.052-22.238-25.107-30.169
				c-0.537-0.828-1.046-1.627-1.554-2.397l9.667-8.396l4.75-4.111c5.904-5.142,6.078-13.32,0.385-18.273l-28.602-24.839
				c-2.76-2.412-6.428-3.603-10.131-3.603C444.805,178.193,440.861,179.515,437.825,182.145"/>
		</defs>
		<clipPath id="SVGID_2_">
			<use xlink:href="#SVGID_1_"  overflow="visible"/>
		</clipPath>
		
			<linearGradient id="SVGID_3_" gradientUnits="userSpaceOnUse" x1="306.2114" y1="621.6621" x2="315.4495" y2="621.6621" gradientTransform="matrix(20.046 0 0 -20.046 -5718.4375 12722.0313)">
			<stop  offset="0" style="stop-color:#B78D2E"/>
			<stop  offset="0.0311" style="stop-color:#B78D2E"/>
			<stop  offset="0.1187" style="stop-color:#C8A34A"/>
			<stop  offset="0.2359" style="stop-color:#DBBA69"/>
			<stop  offset="0.3504" style="stop-color:#E8CB7F"/>
			<stop  offset="0.4597" style="stop-color:#F0D68C"/>
			<stop  offset="0.5581" style="stop-color:#F3D991"/>
			<stop  offset="0.7377" style="stop-color:#F3D991"/>
			<stop  offset="0.8769" style="stop-color:#B78D2E"/>
			<stop  offset="1" style="stop-color:#C8A04F"/>
		</linearGradient>
		<rect x="416.618" y="178.193" clip-path="url(#SVGID_2_)" fill="url(#SVGID_3_)" width="189.886" height="164.023"/>
	</g>
</g>
<g id="Username" display="none">
	<g id="Username_2_" display="inline">
		<path fill="#FFFFFF" d="M683.142,235.548c4.076,0,7.383,3.473,7.383,7.75v44.583c0,4.281-3.307,7.752-7.383,7.752H357.71v-11.188
			c0-9.34-3.993-17.863-10.555-23.529c1.794-3.293,2.78-7.059,2.78-10.985c0-5.478-1.897-10.493-5.031-14.383H683.142z
			 M334.685,260.949c4.372-2.453,7.392-7.241,7.392-12.813c0-8.051-6.218-14.574-13.873-14.574c-7.668,0-13.879,6.523-13.879,14.574
			c0,5.572,3.016,10.361,7.387,12.813c-8.761,2.919-15.156,11.568-15.156,21.7v11.475h43.282v-11.475
			C349.837,272.517,343.443,263.868,334.685,260.949"/>
		<g display="none" opacity="0.7">
			<g display="inline">
				<defs>
					<rect id="SVGID_4_" x="368.086" y="261.59" width="88.025" height="14.066"/>
				</defs>
				<clipPath id="SVGID_5_">
					<use xlink:href="#SVGID_4_"  overflow="visible"/>
				</clipPath>
				<path clip-path="url(#SVGID_5_)" fill="#A5ABC7" d="M373.698,273.976c0.768,0,1.406-0.156,1.914-0.47
					c0.507-0.311,0.914-0.719,1.218-1.219c0.302-0.503,0.516-1.076,0.639-1.721c0.124-0.643,0.186-1.297,0.186-1.962v-7.014h1.671
					v7.014c0,0.938-0.103,1.825-0.307,2.665c-0.204,0.84-0.527,1.579-0.977,2.218c-0.445,0.638-1.024,1.143-1.735,1.513
					c-0.711,0.37-1.575,0.558-2.591,0.558c-1.054,0-1.939-0.195-2.658-0.587c-0.717-0.39-1.298-0.907-1.736-1.551
					c-0.439-0.645-0.755-1.388-0.947-2.225c-0.191-0.843-0.289-1.706-0.289-2.59v-7.014h1.672v7.014
					c0,0.691,0.065,1.356,0.194,2.003c0.134,0.643,0.349,1.211,0.653,1.709c0.302,0.494,0.703,0.896,1.206,1.2
					C372.314,273.823,372.943,273.976,373.698,273.976"/>
				<path clip-path="url(#SVGID_5_)" fill="#A5ABC7" d="M385.162,275.656c-0.783,0-1.549-0.126-2.304-0.383
					c-0.757-0.253-1.407-0.619-1.95-1.104l0.703-1.15c0.571,0.453,1.142,0.795,1.711,1.025c0.568,0.229,1.17,0.34,1.802,0.34
					c0.706,0,1.267-0.145,1.683-0.437c0.412-0.293,0.621-0.706,0.621-1.243c0-0.245-0.055-0.459-0.167-0.633
					c-0.112-0.179-0.28-0.329-0.502-0.459c-0.222-0.132-0.505-0.248-0.854-0.355c-0.349-0.101-0.75-0.214-1.209-0.327
					c-0.582-0.16-1.082-0.309-1.503-0.452c-0.422-0.145-0.769-0.314-1.041-0.507c-0.272-0.197-0.47-0.429-0.593-0.706
					c-0.124-0.273-0.187-0.611-0.187-1.013c0-0.507,0.096-0.96,0.288-1.358c0.191-0.396,0.456-0.729,0.79-0.996
					c0.333-0.267,0.729-0.468,1.179-0.604c0.452-0.138,0.938-0.206,1.459-0.206c0.731,0,1.413,0.124,2.044,0.371
					c0.63,0.247,1.164,0.575,1.598,0.977l-0.744,1.035c-0.409-0.377-0.868-0.662-1.375-0.849c-0.508-0.188-1.027-0.284-1.561-0.284
					c-0.593,0-1.1,0.132-1.512,0.4c-0.417,0.268-0.623,0.695-0.623,1.281c0,0.234,0.038,0.429,0.12,0.585
					c0.08,0.156,0.214,0.294,0.399,0.409c0.185,0.119,0.425,0.223,0.716,0.316c0.29,0.089,0.64,0.186,1.051,0.292
					c0.643,0.154,1.202,0.314,1.68,0.479c0.478,0.16,0.873,0.355,1.189,0.574c0.314,0.221,0.55,0.483,0.704,0.78
					c0.156,0.301,0.232,0.666,0.232,1.095c0,0.951-0.345,1.706-1.039,2.265C387.271,275.375,386.337,275.656,385.162,275.656"/>
				<path clip-path="url(#SVGID_5_)" fill="#A5ABC7" d="M395.211,275.656c-0.731,0-1.401-0.14-2.006-0.422
					c-0.606-0.279-1.129-0.66-1.562-1.143c-0.434-0.478-0.771-1.046-1.013-1.689c-0.242-0.643-0.362-1.327-0.362-2.041
					c0-0.717,0.12-1.394,0.362-2.031c0.241-0.639,0.582-1.2,1.023-1.68c0.439-0.481,0.961-0.862,1.567-1.142
					c0.608-0.282,1.278-0.423,2.006-0.423c0.73,0,1.398,0.145,1.999,0.43c0.601,0.287,1.111,0.67,1.532,1.144
					c0.421,0.476,0.746,1.027,0.975,1.659c0.229,0.632,0.344,1.288,0.344,1.964c0,0.145-0.001,0.273-0.009,0.39
					c-0.005,0.119-0.015,0.21-0.029,0.273h-8.043c0.038,0.507,0.148,0.972,0.335,1.388c0.187,0.417,0.426,0.773,0.723,1.074
					c0.299,0.299,0.635,0.533,1.015,0.702c0.376,0.169,0.776,0.255,1.197,0.255c0.298,0,0.59-0.043,0.873-0.126
					c0.285-0.087,0.552-0.199,0.799-0.344s0.468-0.318,0.66-0.528c0.192-0.206,0.336-0.442,0.436-0.701l1.411,0.409
					c-0.162,0.377-0.38,0.721-0.66,1.035c-0.276,0.314-0.601,0.582-0.967,0.812c-0.365,0.227-0.769,0.405-1.214,0.537
					C396.157,275.59,395.695,275.656,395.211,275.656 M398.537,269.678c-0.038-0.483-0.153-0.929-0.344-1.338
					c-0.192-0.411-0.434-0.758-0.723-1.044c-0.293-0.29-0.63-0.513-1.015-0.676c-0.385-0.161-0.793-0.245-1.227-0.245
					c-0.434,0-0.841,0.084-1.224,0.245c-0.387,0.164-0.723,0.39-1.014,0.686c-0.29,0.293-0.526,0.641-0.707,1.042
					c-0.179,0.405-0.288,0.848-0.323,1.331H398.537z"/>
				<path clip-path="url(#SVGID_5_)" fill="#A5ABC7" d="M406.992,266.768c-0.818,0.024-1.54,0.248-2.166,0.664
					c-0.625,0.418-1.068,0.996-1.329,1.739v6.288h-1.635v-10.194h1.525v2.362c0.333-0.703,0.772-1.285,1.318-1.746
					c0.544-0.463,1.126-0.694,1.745-0.694h0.316c0.087,0,0.162,0.003,0.225,0.019V266.768z"/>
				<path clip-path="url(#SVGID_5_)" fill="#A5ABC7" d="M417.006,275.46h-1.634v-5.705c0-1.093-0.158-1.888-0.474-2.382
					s-0.797-0.743-1.44-0.743c-0.335,0-0.668,0.069-1.005,0.206c-0.333,0.136-0.648,0.322-0.946,0.558
					c-0.298,0.232-0.558,0.515-0.781,0.838c-0.221,0.327-0.391,0.684-0.501,1.074v6.154h-1.634v-10.196h1.486v2.187
					c0.383-0.717,0.938-1.291,1.663-1.721c0.724-0.428,1.512-0.643,2.367-0.643c0.558,0,1.024,0.106,1.395,0.321
					c0.372,0.215,0.668,0.516,0.891,0.899c0.224,0.385,0.38,0.834,0.476,1.358c0.091,0.521,0.139,1.085,0.139,1.699V275.46z"/>
				<path clip-path="url(#SVGID_5_)" fill="#A5ABC7" d="M422.093,275.656c-0.481,0-0.928-0.082-1.335-0.244
					c-0.41-0.166-0.763-0.385-1.058-0.663c-0.298-0.283-0.531-0.615-0.699-0.998c-0.167-0.385-0.251-0.792-0.251-1.219
					c0-0.483,0.1-0.921,0.297-1.321c0.198-0.398,0.481-0.738,0.846-1.017c0.365-0.279,0.799-0.494,1.3-0.645
					c0.502-0.148,1.05-0.223,1.644-0.223c0.47,0,0.947,0.046,1.431,0.137c0.481,0.089,0.91,0.214,1.281,0.37v-0.821
					c0-0.833-0.221-1.487-0.667-1.962c-0.447-0.476-1.079-0.713-1.897-0.713c-0.979,0-2.008,0.397-3.083,1.192l-0.54-1.114
					c0.632-0.443,1.257-0.775,1.878-0.997c0.619-0.221,1.262-0.331,1.932-0.331c1.238,0,2.217,0.36,2.934,1.073
					c0.719,0.718,1.079,1.725,1.079,3.03v4.159c0,0.403,0.173,0.613,0.519,0.626v1.485c-0.124,0.026-0.241,0.044-0.354,0.058
					c-0.108,0.013-0.214,0.021-0.315,0.021c-0.271,0-0.536-0.078-0.797-0.232c-0.261-0.158-0.403-0.427-0.426-0.801l-0.038-0.727
					c-0.224,0.312-0.478,0.587-0.761,0.821c-0.285,0.234-0.59,0.429-0.912,0.585c-0.321,0.156-0.654,0.275-0.993,0.353
					C422.765,275.613,422.431,275.656,422.093,275.656 M422.503,274.366c0.519,0,1.029-0.119,1.523-0.355
					c0.497-0.232,0.886-0.519,1.173-0.858c0.232-0.283,0.35-0.554,0.35-0.799v-1.501c-0.383-0.16-0.79-0.279-1.214-0.364
					c-0.428-0.083-0.841-0.126-1.237-0.126c-0.843,0-1.518,0.179-2.024,0.539c-0.508,0.357-0.764,0.847-0.764,1.472
					c0,0.262,0.05,0.513,0.148,0.752c0.102,0.242,0.244,0.456,0.428,0.636c0.187,0.182,0.413,0.329,0.687,0.438
					C421.846,274.31,422.157,274.366,422.503,274.366"/>
				<path clip-path="url(#SVGID_5_)" fill="#A5ABC7" d="M444.445,275.46h-1.632v-5.705c0-1.068-0.167-1.856-0.493-2.362
					c-0.329-0.511-0.817-0.764-1.46-0.764c-0.669,0-1.265,0.252-1.792,0.75c-0.527,0.504-0.902,1.15-1.125,1.946v6.134h-1.635
					v-5.705c0-1.093-0.16-1.888-0.483-2.382s-0.807-0.743-1.449-0.743c-0.657,0-1.251,0.245-1.783,0.732
					c-0.531,0.487-0.911,1.137-1.132,1.944v6.154h-1.636v-10.196h1.485v2.187c0.398-0.754,0.912-1.339,1.542-1.75
					c0.634-0.409,1.345-0.614,2.139-0.614c0.816,0,1.465,0.229,1.94,0.692c0.476,0.462,0.771,1.058,0.883,1.789
					c0.868-1.654,2.099-2.481,3.698-2.481c0.558,0,1.023,0.106,1.402,0.321c0.377,0.215,0.677,0.516,0.902,0.899
					c0.22,0.385,0.382,0.834,0.483,1.358c0.097,0.521,0.146,1.085,0.146,1.699V275.46z"/>
				<path clip-path="url(#SVGID_5_)" fill="#A5ABC7" d="M451.245,275.656c-0.73,0-1.4-0.14-2.005-0.422
					c-0.608-0.279-1.129-0.66-1.563-1.143c-0.434-0.478-0.77-1.046-1.012-1.689s-0.361-1.327-0.361-2.041
					c0-0.717,0.12-1.394,0.361-2.031c0.242-0.639,0.582-1.2,1.024-1.68c0.439-0.481,0.96-0.862,1.567-1.142
					c0.607-0.282,1.277-0.423,2.006-0.423c0.73,0,1.398,0.145,2,0.43c0.599,0.287,1.111,0.67,1.532,1.144
					c0.42,0.476,0.746,1.027,0.974,1.659c0.23,0.632,0.345,1.288,0.345,1.964c0,0.145-0.002,0.273-0.009,0.39
					c-0.005,0.119-0.016,0.21-0.029,0.273h-8.043c0.038,0.507,0.149,0.972,0.333,1.388c0.188,0.417,0.428,0.773,0.725,1.074
					c0.298,0.299,0.634,0.533,1.014,0.702c0.377,0.169,0.777,0.255,1.198,0.255c0.298,0,0.589-0.043,0.874-0.126
					c0.285-0.087,0.552-0.199,0.799-0.344s0.468-0.318,0.66-0.528c0.192-0.206,0.337-0.442,0.436-0.701l1.412,0.409
					c-0.162,0.377-0.38,0.721-0.661,1.035c-0.276,0.314-0.601,0.582-0.966,0.812c-0.365,0.227-0.769,0.405-1.214,0.537
					C452.191,275.59,451.728,275.656,451.245,275.656 M454.571,269.678c-0.038-0.483-0.154-0.929-0.345-1.338
					c-0.191-0.411-0.434-0.758-0.723-1.044c-0.293-0.29-0.632-0.513-1.014-0.676c-0.385-0.161-0.793-0.245-1.228-0.245
					c-0.434,0-0.842,0.084-1.224,0.245c-0.386,0.164-0.723,0.39-1.015,0.686c-0.291,0.293-0.525,0.641-0.706,1.042
					c-0.178,0.405-0.287,0.848-0.323,1.331H454.571z"/>
			</g>
		</g>
		<rect x="492.177" y="235.596" fill="#FFFFFF" width="199.131" height="59.988"/>
	</g>
</g>
<g id="Royal_line" display="none">
	<g id="Royal_layer" display="inline">
		<polygon fill="#FFCA5D" points="493.555,249.927 479.725,267.95 493.555,286.02 507.398,267.95 		"/>
		<g>
			<path fill="#FFCA5D" d="M375.709,246.392c-1.628,0.353-3.243,0.733-4.819,1.086c-1.528,0.454-3.004,1.135-4.469,1.688
				c-5.841,2.198-10.563,5.58-14.424,8.786c-3.697,3.484-6.676,6.839-8.58,9.945c-4.102,6.058-5.339,10.121-5.339,10.121
				s1.135-4.063,5.11-10.274c1.893-3.153,4.783-6.562,8.468-10.17c3.824-3.355,8.557-6.89,14.488-9.162
				c1.452-0.555,2.94-1.212,4.493-1.74c1.616-0.33,3.255-0.735,4.91-1.11c3.306-1.011,6.853-0.885,10.461-1.288
				c3.585-0.328,7.281,0.277,11.081,0.403c3.798,0.326,7.558,1.339,11.445,1.995c7.61,1.942,15.461,4.29,22.983,7.748
				c7.658,3.104,15.168,6.816,23.232,8.807c8,2.175,16.355,3.005,24.469,2.123c4.986-0.656,9.806-1.969,14.363-3.787
				c4.555,1.818,9.363,3.131,14.35,3.787c8.101,0.883,16.453,0.052,24.455-2.123c8.077-1.991,15.549-5.702,23.221-8.807
				c7.524-3.458,15.371-5.805,23.02-7.748c3.86-0.656,7.648-1.668,11.383-1.995c3.785-0.126,7.547-0.731,11.104-0.403
				c3.66,0.403,7.197,0.277,10.501,1.288c1.64,0.375,3.283,0.78,4.847,1.11c1.616,0.528,3.057,1.186,4.544,1.74
				c5.932,2.272,10.676,5.807,14.461,9.162c3.687,3.609,6.589,7.018,8.455,10.17c3.989,6.211,5.15,10.274,5.15,10.274
				s-1.236-4.063-5.324-10.121c-1.972-3.106-4.897-6.461-8.607-9.945c-3.888-3.206-8.583-6.587-14.438-8.786
				c-1.488-0.553-2.927-1.234-4.414-1.688c-1.592-0.353-3.208-0.733-4.875-1.086c-3.23-0.984-6.762-0.831-10.299-1.16
				c-3.557-0.301-7.242,0.277-10.954,0.429c-3.733,0.403-7.495,1.389-11.331,2.045c-7.545,1.993-15.27,4.443-22.713,7.899
				c-7.523,3.155-15.121,6.94-23.349,9.038c-8.18,2.144-16.683,2.951-25.013,1.892c-4.91-0.578-9.681-1.892-14.172-3.683
				c-4.52,1.791-9.275,3.104-14.237,3.683c-8.266,1.06-16.833,0.252-24.998-1.892c-8.204-2.098-15.789-5.883-23.323-9.038
				c-7.447-3.456-15.219-5.906-22.73-7.899c-3.86-0.656-7.57-1.642-11.292-2.045c-3.737-0.151-7.408-0.729-10.982-0.429
				C382.475,245.562,378.954,245.408,375.709,246.392z"/>
			<path fill="#FFCA5D" d="M394.665,261.006c-5.919-2.043-1.287-7.218,1.413-1.589c-2.7-5.629,4.202-6.032,2.146-0.103
				c2.056-5.929,7.23-1.286,1.552,1.44c5.163-2.497,5.867,2.953,1.5,2.373c0.936,0.353,1.996,0.733,3.195,1.11
				c4.958,1.719,12.127,3.762,20.846,5.654c8.697,1.743,19.02,3.104,30.038,3.056c11.015,0,22.753-1.869,33.605-6.16
				c1.554-0.629,2.915-1.995,4.62-1.995c1.68,0,3.065,1.366,4.617,1.995c10.816,4.292,22.579,6.16,33.582,6.16
				c11.032,0.048,21.353-1.313,30.035-3.056c8.709-1.892,15.877-3.935,20.824-5.654c1.184-0.376,2.245-0.757,3.23-1.11
				c-4.393,0.58-3.636-4.87,1.438-2.373c-5.629-2.726-0.453-7.369,1.64-1.44c-2.093-5.929,4.798-5.526,2.096,0.103
				c2.702-5.629,7.348-0.454,1.439,1.589c5.908-2.043,5.526,4.847-0.126,2.121c5.652,2.726,0.506,7.295-1.564,1.415
				c2.07,5.881-4.871,5.528-2.145-0.126c-2.298,4.794-5.906,1.816-3.383-0.404c-0.733,0.303-1.441,0.681-2.322,1.032
				c-4.823,2.07-11.764,4.924-20.572,7.169c-8.73,2.198-19.156,4.443-30.59,4.519c-11.381,0.175-23.675-1.541-35.157-5.931
				c-1.036-0.404-1.933-1.287-3.042-1.287c-1.135,0-2.033,0.883-3.043,1.287c-11.521,4.391-23.814,6.106-35.195,5.931
				c-11.422-0.076-21.859-2.32-30.592-4.519c-8.77-2.245-15.737-5.099-20.533-7.169c-0.894-0.351-1.642-0.729-2.372-1.032
				c2.535,2.22-1.073,5.198-3.357,0.404c2.7,5.654-4.216,6.007-2.146,0.126c-2.07,5.881-7.23,1.312-1.592-1.415
				C389.113,265.853,388.746,258.963,394.665,261.006z"/>
		</g>
		<rect x="271.961" y="266.157" fill="#FFCA5D" width="443.211" height="2.522"/>
	</g>
</g>
<g id="Queens_logo">
	<g>
		<defs>
			<path id="SVGID_6_" d="M377.366,269.745c-6.952-5.243-12.552-12.874-16.646-22.68c-4.172-9.993-6.286-21.772-6.286-35.015
				c0-13.162,1.912-24.971,5.682-35.098c3.682-9.894,8.953-17.673,15.668-23.121c6.579-5.342,13.961-7.938,22.57-7.938
				c8.288,0,15.634,2.513,22.455,7.681c6.921,5.245,12.506,12.877,16.6,22.685c4.171,9.99,6.287,21.771,6.287,35.014
				c0,13.164-1.914,24.971-5.683,35.099c-3.684,9.897-8.94,17.677-15.621,23.128c-6.543,5.336-13.904,7.93-22.508,7.93
				C391.589,277.43,384.224,274.915,377.366,269.745 M360.192,144.554c-11.403,6.56-20.415,15.896-26.787,27.745
				c-6.313,11.738-9.515,25.374-9.515,40.528c0,14.399,2.703,27.193,8.03,38.029c5.397,10.979,13.197,19.767,23.189,26.12
				c6.263,3.985,13.251,6.963,20.879,8.914c-1.706,0.664-3.213,1.232-4.505,1.697c-1.927,0.695-4.073,1.326-6.389,1.881
				c-5.752-1.033-11.379-1.557-16.743-1.557c-4.583,0-8.027,0.42-10.535,1.28c-5.165,1.774-5.722,5.287-5.722,6.712
				c0,2.891,1.875,5.265,5.144,6.516c2.254,0.863,5.319,1.283,9.363,1.283c5.873,0,12.145-0.924,18.656-2.748
				c0.412,0.104,0.858,0.217,1.343,0.336c0.881,0.221,1.814,0.454,2.802,0.705c6.488,1.902,15.139,4.955,25.718,9.077
				c10.867,4.235,19.701,7.331,26.256,9.204c6.816,1.947,13.979,2.934,21.284,2.934c13.719,0,24.818-3.316,32.992-9.853l0.043-0.036
				c6.252-5.146,11.205-12.803,14.741-22.771l0.005-0.002c0,0,0.002-0.01,0.01-0.033c0.186-0.53,0.367-1.066,0.549-1.607
				c1.867-5.201,8.4-21.604,19.992-32.353c6.725-6.238,17.482-6.634,24.771-0.97l22.584,17.556c0.217,0.224,0.479,0.588,0.689,1.152
				c-0.25,10.099-4.102,17.386-7.369,21.783c-1.25,1.612-2.754,3.304-4.594,4.991c-4.24,3.881-10.271,7.763-19.137,10.736v10.18
				h84.723v-10.45c0,0-25.047-6.692-30.256-26.86c21.836,8.039,44.328,9.715,59.799-4.402
				c33.463-30.536-33.164-97.603-43.73-106.782c-10.564-9.178-29.35-36.077-29.35-36.077c-0.879,3-13.498,18.267-13.498,18.267
				c-15.557,15.813-44.32,50.89-44.32,50.89l56.547,33.805l-18.021-21.956c-1.615-1.961-1.646-4.674-0.082-6.669l18.885-24.083
				c0,0,36.592,37.26,41.289,53.618c4.695,16.356-18.492,28.353-45.787,11.178c-26.193-16.485-45.836-27.477-60.977-36.086
				l-3.613,9.487c-0.41,0.977-0.872,2.074-1.381,3.268l0,0c-4.807,11.354-13.57,31.721-19.535,43.667l0,0
				c-3.194,7.076-6.619,12.387-10.037,16.359c-9.348,10.728-26.725,10.883-32.352,10.627c-5.939-0.368-12.82-1.125-20.562-2.264
				c-7.868-1.161-16.928-2.611-27.057-4.332c3.746-1.393,6.802-2.432,9.101-3.103c2.506-0.732,5.487-1.286,8.864-1.646l3.642-0.388
				v-0.09c11.739-1.494,22.374-5.377,31.657-11.568c10.236-6.828,18.305-16.051,23.978-27.409c5.628-11.263,8.48-24.211,8.48-38.489
				c0-15.476-3.112-29.066-9.249-40.393c-6.213-11.466-15.117-20.348-26.462-26.395c-11.27-6.002-24.526-9.046-39.411-9.046
				C384.729,134.665,371.595,137.992,360.192,144.554"/>
		</defs>
		<clipPath id="SVGID_7_">
			<use xlink:href="#SVGID_6_"  overflow="visible"/>
		</clipPath>
		
			<linearGradient id="SVGID_8_" gradientUnits="userSpaceOnUse" x1="-1568.5337" y1="1829.9277" x2="-1568.3964" y2="1829.9277" gradientTransform="matrix(2390.6782 0 0 -2390.6787 3750183 4374996)">
			<stop  offset="0" style="stop-color:#B98E30"/>
			<stop  offset="0.0311" style="stop-color:#B98E30"/>
			<stop  offset="0.1149" style="stop-color:#C9A24B"/>
			<stop  offset="0.2346" style="stop-color:#DCBB6A"/>
			<stop  offset="0.3508" style="stop-color:#E9CC81"/>
			<stop  offset="0.4608" style="stop-color:#F1D68E"/>
			<stop  offset="0.5581" style="stop-color:#F4DA93"/>
			<stop  offset="0.7377" style="stop-color:#F4DA93"/>
			<stop  offset="0.8769" style="stop-color:#B98E30"/>
			<stop  offset="1" style="stop-color:#C9A14F"/>
		</linearGradient>
		<rect x="323.89" y="134.665" clip-path="url(#SVGID_7_)" fill="url(#SVGID_8_)" width="351.778" height="188.546"/>
	</g>
	<g>
		<defs>
			<path id="SVGID_9_" d="M377.366,269.745c-6.952-5.243-12.552-12.874-16.646-22.68c-4.172-9.993-6.286-21.772-6.286-35.015
				c0-13.162,1.912-24.971,5.682-35.098c3.682-9.894,8.953-17.673,15.668-23.121c6.579-5.342,13.961-7.938,22.57-7.938
				c8.288,0,15.634,2.513,22.455,7.681c6.921,5.245,12.506,12.877,16.6,22.685c4.171,9.99,6.287,21.771,6.287,35.014
				c0,13.164-1.914,24.971-5.683,35.099c-3.684,9.897-8.94,17.677-15.621,23.128c-6.543,5.336-13.904,7.93-22.508,7.93
				C391.589,277.43,384.224,274.915,377.366,269.745 M374.885,152.871c-6.897,5.598-12.301,13.559-16.065,23.666
				c-3.82,10.261-5.756,22.209-5.756,35.514c0,13.401,2.145,25.336,6.378,35.476c4.181,10.015,9.923,17.823,17.061,23.207
				c7.112,5.364,14.759,7.97,23.38,7.97c8.95,0,16.608-2.697,23.412-8.246c6.862-5.598,12.249-13.562,16.013-23.668
				c3.821-10.262,5.757-22.21,5.757-35.515c0-13.4-2.145-25.336-6.379-35.474c-4.181-10.014-9.904-17.824-17.011-23.212
				c-7.076-5.36-14.704-7.966-23.321-7.966C389.399,144.621,381.722,147.319,374.885,152.871 M365.437,290.701
				c2.365-0.567,4.567-1.215,6.545-1.927c1.298-0.468,2.827-1.044,4.536-1.708l3.661-1.426l-3.825-0.977
				c-7.469-1.91-14.356-4.848-20.468-8.737c-9.784-6.223-17.428-14.835-22.718-25.6c-5.246-10.668-7.906-23.286-7.906-37.5
				c0-14.956,3.152-28.399,9.37-39.958c6.257-11.635,15.1-20.798,26.283-27.234c11.184-6.434,24.073-9.697,38.313-9.697
				c14.64,0,27.671,2.988,38.729,8.878c11.109,5.921,19.829,14.622,25.92,25.86c6.039,11.152,9.1,24.547,9.1,39.822
				c0,14.089-2.809,26.858-8.349,37.953c-5.576,11.158-13.495,20.21-23.536,26.91c-9.089,6.062-19.534,9.876-31.042,11.34
				l-1.185,0.151v0.065l-2.429,0.261c-3.464,0.367-6.53,0.938-9.119,1.692c-2.329,0.681-5.425,1.733-9.199,3.138l-4.416,1.639
				l4.677,0.793c10.127,1.721,19.242,3.182,27.09,4.338c7.751,1.141,14.711,1.908,20.684,2.278h0.012l0.013,0.001
				c0.852,0.04,1.742,0.057,2.647,0.057c7.885,0,22.377-1.447,30.836-11.153l0.002-0.003l0.002-0.004
				c3.779-4.391,7.217-9.991,10.222-16.646c5.999-12.018,14.826-32.542,19.555-43.709l0.012-0.031
				c0.504-1.185,0.963-2.272,1.371-3.239l0.006-0.02l0.01-0.02l3.049-8.008c0.891,0.504,1.79,1.018,2.709,1.539
				c14.674,8.33,32.936,18.699,56.77,33.697c8.941,5.626,18.131,8.598,26.578,8.598c7.924,0,14.697-2.695,18.584-7.394
				c3.193-3.86,4.158-8.748,2.717-13.763c-1.109-3.863-4.004-9.127-8.609-15.649c-3.643-5.158-8.371-11.132-14.045-17.759
				c-9.65-11.263-18.85-20.647-18.943-20.739l-1.129-1.152l-0.99,1.262l-18.887,24.082c-1.906,2.432-1.865,5.798,0.098,8.191
				l13.289,16.187l-48.732-29.133c5.002-6.061,29.545-35.684,43.34-49.708l0.041-0.04l0.037-0.045
				c0.031-0.036,3.203-3.878,6.441-8.036c3.363-4.32,5.166-6.87,6.146-8.435c1.82,2.551,5.33,7.414,9.416,12.764
				c8.041,10.517,14.371,17.809,18.82,21.674c3.646,3.167,16.863,15.932,29.336,32.46c6.816,9.037,12.238,17.656,16.109,25.618
				c4.654,9.572,7.066,18.199,7.162,25.637c0.059,4.158-0.615,8.006-1.994,11.437c-1.477,3.657-3.797,6.952-6.906,9.79
				c-3.818,3.484-8.254,6.107-13.182,7.797c-4.611,1.578-9.758,2.38-15.307,2.38c-8.9,0-18.943-2.036-29.848-6.05l-2.453-0.904
				l0.617,2.384c2.213,8.569,8.32,16.095,17.662,21.763c5.465,3.314,10.484,5.08,12.557,5.73v8.246h-81.982v-8.018
				c7.547-2.643,13.844-6.245,18.727-10.718c1.727-1.581,3.324-3.315,4.744-5.153l0.008-0.01l0.008-0.011
				c3.33-4.482,7.354-12.019,7.611-22.478l0.002-0.226l-0.076-0.214c-0.234-0.636-0.555-1.17-0.959-1.591l-0.064-0.067l-0.078-0.06
				l-22.586-17.555c-3.559-2.768-8.074-4.291-12.715-4.291c-5.256,0-10.197,1.896-13.908,5.336
				c-11.869,11.006-18.555,27.928-20.318,32.852l-0.007,0.014l-0.007,0.015c-0.162,0.499-0.341,1.017-0.543,1.585l-0.009,0.018l0,0
				l-0.005,0.017c-3.455,9.747-8.282,17.222-14.341,22.21l-0.037,0.031c-7.917,6.334-18.715,9.545-32.094,9.545
				c-7.17,0-14.194-0.969-20.882-2.879c-6.513-1.859-15.302-4.943-26.128-9.162c-10.616-4.136-19.309-7.203-25.835-9.115
				l-0.027-0.008l-0.025-0.008c-0.944-0.239-1.89-0.477-2.809-0.705c-0.479-0.119-0.927-0.231-1.333-0.336l-0.38-0.098l-0.38,0.105
				c-6.38,1.788-12.524,2.697-18.259,2.697c-3.865,0-6.753-0.389-8.842-1.188c-2.768-1.061-4.293-2.955-4.293-5.34
				c0-0.516,0.096-1.54,0.744-2.594c0.787-1.28,2.159-2.262,4.081-2.924c2.353-0.809,5.644-1.2,10.061-1.2
				c5.272,0,10.816,0.516,16.481,1.532l0.304,0.055L365.437,290.701z M360.192,144.554c-11.403,6.56-20.415,15.896-26.787,27.745
				c-6.313,11.738-9.515,25.374-9.515,40.528c0,14.399,2.703,27.193,8.03,38.029c5.397,10.979,13.197,19.767,23.189,26.12
				c6.263,3.985,13.251,6.963,20.879,8.914c-1.706,0.664-3.213,1.232-4.505,1.697c-1.927,0.695-4.073,1.326-6.389,1.881
				c-5.752-1.033-11.379-1.557-16.743-1.557c-4.583,0-8.027,0.42-10.535,1.28c-5.165,1.774-5.722,5.287-5.722,6.712
				c0,2.891,1.875,5.265,5.144,6.516c2.254,0.863,5.319,1.283,9.363,1.283c5.873,0,12.145-0.924,18.656-2.748
				c0.412,0.104,0.858,0.217,1.343,0.336c0.881,0.221,1.814,0.454,2.802,0.705c6.488,1.902,15.139,4.955,25.718,9.077
				c10.867,4.235,19.701,7.331,26.256,9.204c6.816,1.947,13.979,2.934,21.284,2.934c13.719,0,24.818-3.316,32.992-9.853l0.043-0.036
				c6.252-5.146,11.205-12.803,14.741-22.771l0.005-0.002c0,0,0.002-0.01,0.01-0.033c0.186-0.53,0.367-1.066,0.549-1.607
				c1.867-5.201,8.4-21.604,19.992-32.353c3.553-3.298,8.238-4.963,12.938-4.963c4.195,0,8.4,1.323,11.834,3.993l22.584,17.556
				c0.217,0.224,0.479,0.588,0.689,1.152c-0.25,10.099-4.102,17.386-7.369,21.783c-1.25,1.612-2.754,3.304-4.594,4.991
				c-4.24,3.881-10.271,7.763-19.137,10.736v10.18h84.723v-10.45c0,0-25.047-6.692-30.256-26.86
				c10.236,3.768,20.617,6.138,30.352,6.138c11.033,0,21.23-3.042,29.447-10.54c33.463-30.536-33.164-97.603-43.73-106.782
				c-10.564-9.178-29.35-36.077-29.35-36.077c-0.879,3-13.498,18.267-13.498,18.267c-15.557,15.813-44.32,50.89-44.32,50.89
				l56.547,33.805l-18.021-21.956c-1.615-1.961-1.646-4.674-0.082-6.669l18.885-24.083c0,0,36.592,37.26,41.289,53.618
				c3.076,10.713-5.814,19.555-19.979,19.555c-7.465,0-16.393-2.452-25.809-8.377c-26.193-16.485-45.836-27.477-60.977-36.086
				l-3.613,9.487c-0.41,0.977-0.872,2.074-1.381,3.268l0,0c-4.807,11.354-13.57,31.721-19.535,43.667l0,0
				c-3.194,7.076-6.619,12.387-10.037,16.359c-8.196,9.404-22.562,10.684-29.771,10.684c-1.015,0-1.888-0.026-2.581-0.057
				c-5.939-0.368-12.82-1.125-20.562-2.264c-7.868-1.161-16.928-2.611-27.057-4.332c3.746-1.393,6.802-2.432,9.101-3.103
				c2.506-0.732,5.487-1.286,8.864-1.646l3.642-0.388v-0.09c11.739-1.494,22.374-5.377,31.657-11.568
				c10.236-6.828,18.305-16.051,23.978-27.409c5.628-11.263,8.48-24.211,8.48-38.489c0-15.476-3.112-29.066-9.249-40.393
				c-6.213-11.466-15.117-20.348-26.462-26.395c-11.27-6.002-24.526-9.046-39.411-9.046
				C384.729,134.665,371.595,137.992,360.192,144.554"/>
		</defs>
		<clipPath id="SVGID_10_">
			<use xlink:href="#SVGID_9_"  overflow="visible"/>
		</clipPath>
		
			<linearGradient id="SVGID_11_" gradientUnits="userSpaceOnUse" x1="-1568.5327" y1="1829.9297" x2="-1568.3954" y2="1829.9297" gradientTransform="matrix(2390.6782 0 0 -2390.6787 3750181 4375000)">
			<stop  offset="0" style="stop-color:#C9A14F"/>
			<stop  offset="0.1231" style="stop-color:#B98E30"/>
			<stop  offset="0.2623" style="stop-color:#F4DA93"/>
			<stop  offset="0.4749" style="stop-color:#F4DA93"/>
			<stop  offset="0.5669" style="stop-color:#E1C172"/>
			<stop  offset="0.6697" style="stop-color:#CFAB56"/>
			<stop  offset="0.772" style="stop-color:#C39B41"/>
			<stop  offset="0.8725" style="stop-color:#BB9134"/>
			<stop  offset="0.9689" style="stop-color:#B98E30"/>
			<stop  offset="1" style="stop-color:#B98E30"/>
		</linearGradient>
		<rect x="323.89" y="134.665" clip-path="url(#SVGID_10_)" fill="url(#SVGID_11_)" width="351.778" height="188.546"/>
	</g>
	
		<text transform="matrix(0.9343 0 0 1 364.2212 396.3516)" display="none" fill="#FFF100" font-family="'Univers-Condensed-Medium'" font-size="19.3165" letter-spacing="4.281">TRUSTED INVESTMENTS</text>
	<g>
		<linearGradient id="SVGID_12_" gradientUnits="userSpaceOnUse" x1="348.3105" y1="373.9063" x2="348.3105" y2="351.4258">
			<stop  offset="0" style="stop-color:#B98E30"/>
			<stop  offset="0.0311" style="stop-color:#B98E30"/>
			<stop  offset="0.1149" style="stop-color:#C9A24B"/>
			<stop  offset="0.2346" style="stop-color:#DCBB6A"/>
			<stop  offset="0.3508" style="stop-color:#E9CC81"/>
			<stop  offset="0.4608" style="stop-color:#F1D68E"/>
			<stop  offset="0.5581" style="stop-color:#F4DA93"/>
			<stop  offset="0.7377" style="stop-color:#F4DA93"/>
			<stop  offset="0.8769" style="stop-color:#B98E30"/>
			<stop  offset="1" style="stop-color:#C9A14F"/>
		</linearGradient>
		<path fill="url(#SVGID_12_)" d="M350.47,369.326c0.371,1.135,0.946,1.988,1.728,2.561c0.782,0.57,1.761,0.855,2.938,0.855
			c0.322,0,0.666-0.033,1.028-0.102v0.777c-1.217,0.328-2.306,0.488-3.264,0.488c-1.5,0-2.84-0.387-4.021-1.164
			c-1.182-0.775-2.07-1.914-2.667-3.416c-1.982-0.441-3.581-1.471-4.793-3.084c-1.213-1.609-1.82-3.537-1.82-5.77
			c0-2.594,0.823-4.75,2.468-6.471c1.644-1.719,3.731-2.576,6.262-2.576c2.524,0,4.604,0.863,6.239,2.584
			c1.637,1.725,2.454,3.877,2.454,6.463c0,2.25-0.64,4.209-1.922,5.871C353.819,368.008,352.276,369,350.47,369.326z
			 M348.318,352.398c-1.451,0-2.572,0.797-3.362,2.393c-0.661,1.338-0.991,3.244-0.991,5.719c0,2.971,0.495,5.172,1.487,6.604
			c0.693,0.998,1.648,1.494,2.866,1.494c1.225,0,2.181-0.49,2.865-1.471c0.993-1.408,1.487-3.521,1.487-6.346
			c0-2.779-0.311-4.795-0.931-6.041C350.966,353.184,349.825,352.398,348.318,352.398z"/>
		<linearGradient id="SVGID_13_" gradientUnits="userSpaceOnUse" x1="368.749" y1="369.584" x2="368.749" y2="351.8223">
			<stop  offset="0" style="stop-color:#B98E30"/>
			<stop  offset="0.0311" style="stop-color:#B98E30"/>
			<stop  offset="0.1149" style="stop-color:#C9A24B"/>
			<stop  offset="0.2346" style="stop-color:#DCBB6A"/>
			<stop  offset="0.3508" style="stop-color:#E9CC81"/>
			<stop  offset="0.4608" style="stop-color:#F1D68E"/>
			<stop  offset="0.5581" style="stop-color:#F4DA93"/>
			<stop  offset="0.7377" style="stop-color:#F4DA93"/>
			<stop  offset="0.8769" style="stop-color:#B98E30"/>
			<stop  offset="1" style="stop-color:#C9A14F"/>
		</linearGradient>
		<path fill="url(#SVGID_13_)" d="M359.668,351.822h9.108v0.473h-0.457c-0.686,0-1.156,0.07-1.412,0.213
			c-0.255,0.139-0.437,0.332-0.545,0.58c-0.109,0.248-0.163,0.867-0.163,1.855v8.498c0,1.549,0.119,2.58,0.357,3.082
			c0.239,0.504,0.632,0.924,1.178,1.252c0.546,0.336,1.236,0.5,2.069,0.5c0.955,0,1.766-0.209,2.439-0.633
			c0.672-0.42,1.175-1.004,1.508-1.746s0.5-2.035,0.5-3.877v-7.076c0-0.775-0.082-1.33-0.246-1.662
			c-0.165-0.334-0.374-0.563-0.625-0.693c-0.392-0.193-0.943-0.293-1.655-0.293v-0.473h6.103v0.473h-0.364
			c-0.494,0-0.907,0.1-1.237,0.293c-0.331,0.197-0.567,0.492-0.715,0.883c-0.113,0.273-0.169,0.766-0.169,1.473v6.59
			c0,2.039-0.137,3.51-0.409,4.414c-0.273,0.904-0.939,1.736-1.998,2.498c-1.058,0.754-2.502,1.139-4.332,1.139
			c-1.527,0-2.707-0.201-3.538-0.604c-1.138-0.545-1.939-1.246-2.408-2.1c-0.468-0.854-0.702-1.996-0.702-3.439v-8.498
			c0-0.998-0.057-1.619-0.169-1.861c-0.113-0.242-0.307-0.436-0.585-0.582c-0.277-0.145-0.79-0.211-1.536-0.205V351.822z"/>
		<linearGradient id="SVGID_14_" gradientUnits="userSpaceOnUse" x1="389.9346" y1="369.1719" x2="389.9346" y2="351.8223">
			<stop  offset="0" style="stop-color:#B98E30"/>
			<stop  offset="0.0311" style="stop-color:#B98E30"/>
			<stop  offset="0.1149" style="stop-color:#C9A24B"/>
			<stop  offset="0.2346" style="stop-color:#DCBB6A"/>
			<stop  offset="0.3508" style="stop-color:#E9CC81"/>
			<stop  offset="0.4608" style="stop-color:#F1D68E"/>
			<stop  offset="0.5581" style="stop-color:#F4DA93"/>
			<stop  offset="0.7377" style="stop-color:#F4DA93"/>
			<stop  offset="0.8769" style="stop-color:#B98E30"/>
			<stop  offset="1" style="stop-color:#C9A14F"/>
		</linearGradient>
		<path fill="url(#SVGID_14_)" d="M388.529,352.82v7.061h0.382c1.214,0,2.096-0.346,2.641-1.033
			c0.547-0.693,0.896-1.711,1.046-3.061h0.536v9.088h-0.536c-0.113-0.992-0.351-1.803-0.714-2.432
			c-0.361-0.635-0.783-1.057-1.263-1.273c-0.48-0.221-1.178-0.326-2.092-0.326v4.885c0,0.959,0.044,1.543,0.134,1.754
			c0.09,0.217,0.257,0.391,0.503,0.525c0.244,0.137,0.64,0.205,1.186,0.205h1.144c1.79,0,3.224-0.375,4.303-1.127
			c1.078-0.75,1.853-1.895,2.324-3.43h0.521l-0.861,5.516h-16.558v-0.473h0.637c0.555,0,1.002-0.092,1.341-0.27
			c0.244-0.119,0.433-0.324,0.564-0.615c0.104-0.203,0.157-0.742,0.157-1.609v-11.414c0-0.785-0.025-1.268-0.071-1.445
			c-0.094-0.301-0.268-0.529-0.522-0.691c-0.358-0.242-0.849-0.359-1.469-0.359h-0.637v-0.473h16.036v5.131h-0.537
			c-0.273-1.254-0.657-2.154-1.151-2.699c-0.495-0.547-1.194-0.947-2.099-1.203c-0.527-0.152-1.517-0.23-2.967-0.23H388.529z"/>
		<linearGradient id="SVGID_15_" gradientUnits="userSpaceOnUse" x1="409.7515" y1="369.1719" x2="409.7515" y2="351.8223">
			<stop  offset="0" style="stop-color:#B98E30"/>
			<stop  offset="0.0311" style="stop-color:#B98E30"/>
			<stop  offset="0.1149" style="stop-color:#C9A24B"/>
			<stop  offset="0.2346" style="stop-color:#DCBB6A"/>
			<stop  offset="0.3508" style="stop-color:#E9CC81"/>
			<stop  offset="0.4608" style="stop-color:#F1D68E"/>
			<stop  offset="0.5581" style="stop-color:#F4DA93"/>
			<stop  offset="0.7377" style="stop-color:#F4DA93"/>
			<stop  offset="0.8769" style="stop-color:#B98E30"/>
			<stop  offset="1" style="stop-color:#C9A14F"/>
		</linearGradient>
		<path fill="url(#SVGID_15_)" d="M408.346,352.82v7.061h0.382c1.214,0,2.095-0.346,2.641-1.033
			c0.546-0.693,0.895-1.711,1.045-3.061h0.538v9.088h-0.538c-0.112-0.992-0.351-1.803-0.713-2.432
			c-0.363-0.635-0.784-1.057-1.264-1.273c-0.48-0.221-1.179-0.326-2.091-0.326v4.885c0,0.959,0.044,1.543,0.134,1.754
			c0.09,0.217,0.256,0.391,0.503,0.525c0.243,0.137,0.639,0.205,1.185,0.205h1.145c1.789,0,3.223-0.375,4.301-1.127
			c1.079-0.75,1.854-1.895,2.324-3.43h0.523l-0.861,5.516h-16.559v-0.473h0.636c0.556,0,1.003-0.092,1.343-0.27
			c0.244-0.119,0.432-0.324,0.564-0.615c0.104-0.203,0.157-0.742,0.157-1.609v-11.414c0-0.785-0.025-1.268-0.071-1.445
			c-0.096-0.301-0.27-0.529-0.524-0.691c-0.357-0.242-0.847-0.359-1.469-0.359h-0.636v-0.473h16.037v5.131h-0.538
			c-0.274-1.254-0.658-2.154-1.153-2.699c-0.493-0.547-1.193-0.947-2.098-1.203c-0.527-0.152-1.515-0.23-2.966-0.23H408.346z"/>
		<linearGradient id="SVGID_16_" gradientUnits="userSpaceOnUse" x1="611.6729" y1="369.1719" x2="611.6729" y2="351.8223">
			<stop  offset="0" style="stop-color:#B98E30"/>
			<stop  offset="0.0311" style="stop-color:#B98E30"/>
			<stop  offset="0.1149" style="stop-color:#C9A24B"/>
			<stop  offset="0.2346" style="stop-color:#DCBB6A"/>
			<stop  offset="0.3508" style="stop-color:#E9CC81"/>
			<stop  offset="0.4608" style="stop-color:#F1D68E"/>
			<stop  offset="0.5581" style="stop-color:#F4DA93"/>
			<stop  offset="0.7377" style="stop-color:#F4DA93"/>
			<stop  offset="0.8769" style="stop-color:#B98E30"/>
			<stop  offset="1" style="stop-color:#C9A14F"/>
		</linearGradient>
		<path fill="url(#SVGID_16_)" d="M610.17,352.82v7.061h0.41c1.295,0,2.232-0.346,2.818-1.033c0.582-0.693,0.953-1.711,1.113-3.061
			h0.574v9.088h-0.574c-0.119-0.992-0.373-1.803-0.76-2.432c-0.387-0.635-0.834-1.057-1.35-1.273
			c-0.514-0.221-1.258-0.326-2.232-0.326v4.885c0,0.959,0.047,1.543,0.145,1.754c0.096,0.217,0.273,0.391,0.535,0.525
			c0.262,0.137,0.684,0.205,1.268,0.205h1.219c1.912,0,3.443-0.375,4.592-1.127c1.152-0.75,1.979-1.895,2.479-3.43h0.561
			l-0.92,5.516h-17.668v-0.473h0.678c0.592,0,1.068-0.092,1.43-0.27c0.262-0.119,0.465-0.324,0.602-0.615
			c0.113-0.203,0.168-0.742,0.168-1.609v-11.414c0-0.785-0.025-1.268-0.076-1.445c-0.102-0.301-0.287-0.529-0.559-0.691
			c-0.379-0.242-0.904-0.359-1.564-0.359h-0.678v-0.473h17.111v5.131h-0.576c-0.287-1.254-0.699-2.154-1.223-2.699
			c-0.529-0.547-1.277-0.947-2.244-1.203c-0.561-0.152-1.619-0.23-3.162-0.23H610.17z"/>
		<linearGradient id="SVGID_17_" gradientUnits="userSpaceOnUse" x1="430.4014" y1="369.5703" x2="430.4014" y2="351.8223">
			<stop  offset="0" style="stop-color:#B98E30"/>
			<stop  offset="0.0311" style="stop-color:#B98E30"/>
			<stop  offset="0.1149" style="stop-color:#C9A24B"/>
			<stop  offset="0.2346" style="stop-color:#DCBB6A"/>
			<stop  offset="0.3508" style="stop-color:#E9CC81"/>
			<stop  offset="0.4608" style="stop-color:#F1D68E"/>
			<stop  offset="0.5581" style="stop-color:#F4DA93"/>
			<stop  offset="0.7377" style="stop-color:#F4DA93"/>
			<stop  offset="0.8769" style="stop-color:#B98E30"/>
			<stop  offset="1" style="stop-color:#C9A14F"/>
		</linearGradient>
		<path fill="url(#SVGID_17_)" d="M427.447,351.822l8.981,10.762v-7.461c0-1.039-0.156-1.744-0.47-2.111
			c-0.428-0.494-1.15-0.732-2.161-0.717v-0.473h6.016v0.473c-0.771,0.094-1.288,0.217-1.552,0.365
			c-0.263,0.148-0.47,0.391-0.618,0.73c-0.147,0.338-0.221,0.912-0.221,1.732v14.447h-0.457l-12.309-14.447v11.029
			c0,1,0.238,1.672,0.717,2.021c0.479,0.35,1.027,0.525,1.645,0.525h0.429v0.473h-6.458v-0.473c1.002-0.008,1.7-0.205,2.094-0.588
			c0.394-0.387,0.59-1.039,0.59-1.959v-12.246l-0.39-0.459c-0.383-0.461-0.725-0.764-1.02-0.91c-0.295-0.143-0.72-0.223-1.275-0.242
			v-0.473H427.447z"/>
		<linearGradient id="SVGID_18_" gradientUnits="userSpaceOnUse" x1="448.9121" y1="369.584" x2="448.9121" y2="351.4258">
			<stop  offset="0" style="stop-color:#B98E30"/>
			<stop  offset="0.0311" style="stop-color:#B98E30"/>
			<stop  offset="0.1149" style="stop-color:#C9A24B"/>
			<stop  offset="0.2346" style="stop-color:#DCBB6A"/>
			<stop  offset="0.3508" style="stop-color:#E9CC81"/>
			<stop  offset="0.4608" style="stop-color:#F1D68E"/>
			<stop  offset="0.5581" style="stop-color:#F4DA93"/>
			<stop  offset="0.7377" style="stop-color:#F4DA93"/>
			<stop  offset="0.8769" style="stop-color:#B98E30"/>
			<stop  offset="1" style="stop-color:#C9A14F"/>
		</linearGradient>
		<path fill="url(#SVGID_18_)" d="M453.961,351.426l0.146,5.783h-0.545c-0.257-1.451-0.887-2.617-1.892-3.5
			c-1.004-0.883-2.09-1.324-3.258-1.324c-0.9,0-1.617,0.23-2.143,0.697c-0.526,0.465-0.789,1.002-0.789,1.605
			c0,0.385,0.094,0.727,0.279,1.025c0.256,0.398,0.667,0.797,1.233,1.189c0.416,0.281,1.376,0.779,2.879,1.496
			c2.106,0.998,3.526,1.939,4.261,2.826c0.725,0.891,1.088,1.904,1.088,3.047c0,1.451-0.586,2.699-1.759,3.742
			c-1.173,1.047-2.66,1.57-4.466,1.57c-0.566,0-1.102-0.057-1.605-0.17c-0.506-0.107-1.138-0.318-1.898-0.625
			c-0.425-0.172-0.773-0.256-1.049-0.256c-0.229,0-0.474,0.084-0.729,0.256c-0.256,0.168-0.464,0.43-0.624,0.781h-0.49v-6.553h0.49
			c0.389,1.844,1.139,3.248,2.249,4.219c1.111,0.965,2.308,1.451,3.591,1.451c0.989,0,1.779-0.262,2.368-0.781
			c0.588-0.521,0.882-1.125,0.882-1.818c0-0.406-0.113-0.805-0.338-1.189c-0.226-0.385-0.568-0.746-1.027-1.094
			c-0.46-0.344-1.276-0.793-2.443-1.35c-1.637-0.777-2.813-1.438-3.529-1.982c-0.718-0.545-1.268-1.156-1.652-1.83
			c-0.386-0.674-0.579-1.418-0.579-2.225c0-1.385,0.527-2.561,1.58-3.533c1.053-0.971,2.38-1.459,3.981-1.459
			c0.583,0,1.151,0.068,1.698,0.205c0.417,0.102,0.923,0.293,1.52,0.568c0.597,0.277,1.016,0.416,1.253,0.416
			c0.231,0,0.411-0.068,0.545-0.205c0.132-0.137,0.255-0.463,0.371-0.984H453.961z"/>
		<linearGradient id="SVGID_19_" gradientUnits="userSpaceOnUse" x1="536.9922" y1="369.584" x2="536.9922" y2="351.4258">
			<stop  offset="0" style="stop-color:#B98E30"/>
			<stop  offset="0.0311" style="stop-color:#B98E30"/>
			<stop  offset="0.1149" style="stop-color:#C9A24B"/>
			<stop  offset="0.2346" style="stop-color:#DCBB6A"/>
			<stop  offset="0.3508" style="stop-color:#E9CC81"/>
			<stop  offset="0.4608" style="stop-color:#F1D68E"/>
			<stop  offset="0.5581" style="stop-color:#F4DA93"/>
			<stop  offset="0.7377" style="stop-color:#F4DA93"/>
			<stop  offset="0.8769" style="stop-color:#B98E30"/>
			<stop  offset="1" style="stop-color:#C9A14F"/>
		</linearGradient>
		<path fill="url(#SVGID_19_)" d="M542.043,351.426l0.146,5.783h-0.545c-0.26-1.451-0.889-2.617-1.891-3.5
			c-1.006-0.883-2.09-1.324-3.26-1.324c-0.902,0-1.615,0.23-2.141,0.697c-0.531,0.465-0.791,1.002-0.791,1.605
			c0,0.385,0.09,0.727,0.275,1.025c0.26,0.398,0.668,0.797,1.238,1.189c0.414,0.281,1.371,0.779,2.879,1.496
			c2.105,0.998,3.523,1.939,4.26,2.826c0.725,0.891,1.088,1.904,1.088,3.047c0,1.451-0.586,2.699-1.76,3.742
			c-1.17,1.047-2.658,1.57-4.465,1.57c-0.564,0-1.102-0.057-1.605-0.17c-0.504-0.107-1.137-0.318-1.9-0.625
			c-0.42-0.172-0.77-0.256-1.043-0.256c-0.234,0-0.477,0.084-0.734,0.256c-0.254,0.168-0.461,0.43-0.623,0.781h-0.49v-6.553h0.49
			c0.391,1.844,1.143,3.248,2.252,4.219c1.107,0.965,2.305,1.451,3.588,1.451c0.99,0,1.779-0.262,2.371-0.781
			c0.588-0.521,0.883-1.125,0.883-1.818c0-0.406-0.115-0.805-0.342-1.189c-0.225-0.385-0.568-0.746-1.027-1.094
			c-0.459-0.344-1.273-0.793-2.441-1.35c-1.637-0.777-2.814-1.438-3.531-1.982c-0.713-0.545-1.266-1.156-1.652-1.83
			c-0.381-0.674-0.576-1.418-0.576-2.225c0-1.385,0.525-2.561,1.578-3.533c1.053-0.971,2.381-1.459,3.982-1.459
			c0.584,0,1.148,0.068,1.699,0.205c0.416,0.102,0.922,0.293,1.518,0.568c0.6,0.277,1.018,0.416,1.254,0.416
			c0.232,0,0.41-0.068,0.547-0.205c0.133-0.137,0.256-0.463,0.371-0.984H542.043z"/>
		<linearGradient id="SVGID_20_" gradientUnits="userSpaceOnUse" x1="468.5845" y1="369.1719" x2="468.5845" y2="351.8223">
			<stop  offset="0" style="stop-color:#B98E30"/>
			<stop  offset="0.0311" style="stop-color:#B98E30"/>
			<stop  offset="0.1149" style="stop-color:#C9A24B"/>
			<stop  offset="0.2346" style="stop-color:#DCBB6A"/>
			<stop  offset="0.3508" style="stop-color:#E9CC81"/>
			<stop  offset="0.4608" style="stop-color:#F1D68E"/>
			<stop  offset="0.5581" style="stop-color:#F4DA93"/>
			<stop  offset="0.7377" style="stop-color:#F4DA93"/>
			<stop  offset="0.8769" style="stop-color:#B98E30"/>
			<stop  offset="1" style="stop-color:#C9A14F"/>
		</linearGradient>
		<path fill="url(#SVGID_20_)" d="M468.668,363.262l4.132-11.439h6.197v0.473h-0.494c-0.449,0-0.808,0.09-1.078,0.27
			c-0.188,0.119-0.337,0.32-0.451,0.602c-0.08,0.203-0.123,0.736-0.123,1.6v11.439c0,0.885,0.042,1.441,0.123,1.662
			c0.084,0.223,0.252,0.418,0.506,0.582c0.255,0.166,0.596,0.25,1.022,0.25h0.494v0.473h-7.948v-0.473h0.494
			c0.449,0,0.807-0.092,1.077-0.27c0.188-0.119,0.337-0.324,0.45-0.615c0.081-0.203,0.123-0.742,0.123-1.609v-12.859l-5.838,15.826
			h-0.269l-5.928-15.713v12.223c0,0.85,0.019,1.375,0.056,1.572c0.097,0.426,0.308,0.77,0.634,1.041
			c0.325,0.271,0.835,0.404,1.532,0.404v0.473h-5.209v-0.473h0.158c0.336,0.01,0.65-0.053,0.942-0.186
			c0.293-0.135,0.512-0.311,0.663-0.531c0.149-0.221,0.266-0.531,0.348-0.934c0.014-0.092,0.023-0.525,0.023-1.307v-10.977
			c0-0.879-0.042-1.43-0.124-1.643c-0.083-0.221-0.252-0.41-0.506-0.578c-0.254-0.168-0.595-0.25-1.021-0.25h-0.483v-0.473h6.221
			L468.668,363.262z"/>
		<linearGradient id="SVGID_21_" gradientUnits="userSpaceOnUse" x1="490.3945" y1="369.1719" x2="490.3945" y2="351.4629">
			<stop  offset="0" style="stop-color:#B98E30"/>
			<stop  offset="0.0311" style="stop-color:#B98E30"/>
			<stop  offset="0.1149" style="stop-color:#C9A24B"/>
			<stop  offset="0.2346" style="stop-color:#DCBB6A"/>
			<stop  offset="0.3508" style="stop-color:#E9CC81"/>
			<stop  offset="0.4608" style="stop-color:#F1D68E"/>
			<stop  offset="0.5581" style="stop-color:#F4DA93"/>
			<stop  offset="0.7377" style="stop-color:#F4DA93"/>
			<stop  offset="0.8769" style="stop-color:#B98E30"/>
			<stop  offset="1" style="stop-color:#C9A14F"/>
		</linearGradient>
		<path fill="url(#SVGID_21_)" d="M491.797,364.232h-5.791l-0.69,1.691c-0.228,0.561-0.339,1.025-0.339,1.393
			c0,0.488,0.185,0.844,0.559,1.078c0.214,0.133,0.75,0.236,1.604,0.305v0.473h-5.452v-0.473c0.59-0.094,1.072-0.354,1.452-0.771
			c0.378-0.426,0.845-1.299,1.401-2.619l5.865-13.846h0.229l5.914,14.229c0.564,1.348,1.029,2.197,1.391,2.549
			c0.275,0.262,0.662,0.418,1.162,0.459v0.473h-7.936v-0.473h0.328c0.64,0,1.084-0.094,1.344-0.281
			c0.176-0.137,0.268-0.332,0.268-0.59c0-0.152-0.026-0.311-0.074-0.471c-0.018-0.08-0.139-0.396-0.363-0.963L491.797,364.232z
			 M491.383,363.285l-2.438-5.975l-2.517,5.975H491.383z"/>
		<linearGradient id="SVGID_22_" gradientUnits="userSpaceOnUse" x1="511.4873" y1="369.5703" x2="511.4873" y2="351.8223">
			<stop  offset="0" style="stop-color:#B98E30"/>
			<stop  offset="0.0311" style="stop-color:#B98E30"/>
			<stop  offset="0.1149" style="stop-color:#C9A24B"/>
			<stop  offset="0.2346" style="stop-color:#DCBB6A"/>
			<stop  offset="0.3508" style="stop-color:#E9CC81"/>
			<stop  offset="0.4608" style="stop-color:#F1D68E"/>
			<stop  offset="0.5581" style="stop-color:#F4DA93"/>
			<stop  offset="0.7377" style="stop-color:#F4DA93"/>
			<stop  offset="0.8769" style="stop-color:#B98E30"/>
			<stop  offset="1" style="stop-color:#C9A14F"/>
		</linearGradient>
		<path fill="url(#SVGID_22_)" d="M508.677,351.822l8.55,10.762v-7.461c0-1.039-0.152-1.744-0.447-2.111
			c-0.412-0.494-1.098-0.732-2.059-0.717v-0.473h5.723v0.473c-0.73,0.094-1.225,0.217-1.477,0.365s-0.447,0.391-0.588,0.73
			c-0.141,0.338-0.209,0.912-0.209,1.732v14.447h-0.434l-11.719-14.447v11.029c0,1,0.229,1.672,0.684,2.021
			c0.457,0.35,0.978,0.525,1.565,0.525h0.41v0.473h-6.146v-0.473c0.953-0.008,1.617-0.205,1.992-0.588
			c0.373-0.387,0.561-1.039,0.561-1.959v-12.246l-0.369-0.459c-0.365-0.461-0.69-0.764-0.971-0.91
			c-0.279-0.143-0.686-0.223-1.213-0.242v-0.473H508.677z"/>
		<linearGradient id="SVGID_23_" gradientUnits="userSpaceOnUse" x1="554.1992" y1="369.1719" x2="554.1992" y2="351.8223">
			<stop  offset="0" style="stop-color:#B98E30"/>
			<stop  offset="0.0311" style="stop-color:#B98E30"/>
			<stop  offset="0.1149" style="stop-color:#C9A24B"/>
			<stop  offset="0.2346" style="stop-color:#DCBB6A"/>
			<stop  offset="0.3508" style="stop-color:#E9CC81"/>
			<stop  offset="0.4608" style="stop-color:#F1D68E"/>
			<stop  offset="0.5581" style="stop-color:#F4DA93"/>
			<stop  offset="0.7377" style="stop-color:#F4DA93"/>
			<stop  offset="0.8769" style="stop-color:#B98E30"/>
			<stop  offset="1" style="stop-color:#C9A14F"/>
		</linearGradient>
		<path fill="url(#SVGID_23_)" d="M553.25,361.314v4.811c0,0.939,0.064,1.531,0.191,1.773s0.35,0.439,0.674,0.582
			c0.322,0.146,0.914,0.219,1.779,0.219v0.473h-9.684v-0.473c0.879,0,1.479-0.074,1.789-0.225c0.316-0.148,0.537-0.342,0.662-0.58
			c0.127-0.238,0.189-0.83,0.189-1.77v-11.258c0-0.936-0.063-1.531-0.189-1.773c-0.125-0.242-0.348-0.436-0.666-0.582
			c-0.318-0.143-0.916-0.217-1.785-0.217v-0.473h8.305c2.736,0,4.697,0.445,5.887,1.33c1.193,0.889,1.785,1.998,1.785,3.328
			c0,1.127-0.383,2.088-1.152,2.889c-0.766,0.805-1.826,1.35-3.174,1.641C556.951,361.215,555.416,361.314,553.25,361.314z
			 M553.25,352.82v7.496c0.309,0.018,0.545,0.027,0.703,0.027c1.145,0,2.023-0.309,2.643-0.93c0.621-0.617,0.93-1.574,0.93-2.869
			c0-1.289-0.309-2.232-0.93-2.828c-0.619-0.6-1.539-0.896-2.77-0.896H553.25z"/>
		<linearGradient id="SVGID_24_" gradientUnits="userSpaceOnUse" x1="570.5117" y1="369.1719" x2="570.5117" y2="351.4629">
			<stop  offset="0" style="stop-color:#B98E30"/>
			<stop  offset="0.0311" style="stop-color:#B98E30"/>
			<stop  offset="0.1149" style="stop-color:#C9A24B"/>
			<stop  offset="0.2346" style="stop-color:#DCBB6A"/>
			<stop  offset="0.3508" style="stop-color:#E9CC81"/>
			<stop  offset="0.4608" style="stop-color:#F1D68E"/>
			<stop  offset="0.5581" style="stop-color:#F4DA93"/>
			<stop  offset="0.7377" style="stop-color:#F4DA93"/>
			<stop  offset="0.8769" style="stop-color:#B98E30"/>
			<stop  offset="1" style="stop-color:#C9A14F"/>
		</linearGradient>
		<path fill="url(#SVGID_24_)" d="M571.916,364.232h-5.791l-0.689,1.691c-0.227,0.561-0.34,1.025-0.34,1.393
			c0,0.488,0.188,0.844,0.559,1.078c0.217,0.133,0.752,0.236,1.607,0.305v0.473h-5.457v-0.473c0.592-0.094,1.076-0.354,1.455-0.771
			c0.379-0.426,0.844-1.299,1.4-2.619l5.865-13.846h0.229l5.912,14.229c0.564,1.348,1.031,2.197,1.391,2.549
			c0.275,0.262,0.662,0.418,1.162,0.459v0.473h-7.93v-0.473h0.326c0.635,0,1.082-0.094,1.34-0.281
			c0.18-0.137,0.268-0.332,0.268-0.59c0-0.152-0.025-0.311-0.072-0.471c-0.016-0.08-0.139-0.396-0.363-0.963L571.916,364.232z
			 M571.504,363.285l-2.441-5.975l-2.516,5.975H571.504z"/>
		<linearGradient id="SVGID_25_" gradientUnits="userSpaceOnUse" x1="590.3857" y1="369.1719" x2="590.3857" y2="351.8223">
			<stop  offset="0" style="stop-color:#B98E30"/>
			<stop  offset="0.0311" style="stop-color:#B98E30"/>
			<stop  offset="0.1149" style="stop-color:#C9A24B"/>
			<stop  offset="0.2346" style="stop-color:#DCBB6A"/>
			<stop  offset="0.3508" style="stop-color:#E9CC81"/>
			<stop  offset="0.4608" style="stop-color:#F1D68E"/>
			<stop  offset="0.5581" style="stop-color:#F4DA93"/>
			<stop  offset="0.7377" style="stop-color:#F4DA93"/>
			<stop  offset="0.8769" style="stop-color:#B98E30"/>
			<stop  offset="1" style="stop-color:#C9A14F"/>
		</linearGradient>
		<path fill="url(#SVGID_25_)" d="M580.805,369.172v-0.473h0.629c0.553,0,0.977-0.076,1.271-0.236
			c0.295-0.158,0.512-0.373,0.654-0.648c0.082-0.178,0.125-0.715,0.125-1.609v-11.414c0-0.889-0.055-1.441-0.156-1.664
			c-0.104-0.221-0.311-0.414-0.623-0.582s-0.736-0.25-1.271-0.25h-0.629v-0.473h8.516c2.271,0,4.1,0.281,5.482,0.846
			c1.695,0.689,2.977,1.734,3.85,3.135c0.877,1.398,1.314,2.98,1.314,4.746c0,1.221-0.215,2.342-0.645,3.369
			c-0.432,1.029-0.988,1.879-1.67,2.549c-0.684,0.67-1.473,1.209-2.365,1.613c-0.893,0.402-1.982,0.717-3.273,0.938
			c-0.572,0.104-1.469,0.154-2.693,0.154H580.805z M588.059,352.809v13.535c0,0.717,0.037,1.158,0.109,1.32
			c0.076,0.16,0.201,0.287,0.379,0.369c0.254,0.127,0.617,0.191,1.096,0.191c1.561,0,2.752-0.484,3.576-1.457
			c1.123-1.314,1.686-3.354,1.686-6.115c0-2.227-0.387-4.006-1.154-5.336c-0.605-1.041-1.389-1.75-2.34-2.125
			C590.734,352.926,589.619,352.799,588.059,352.809z"/>
		<linearGradient id="SVGID_26_" gradientUnits="userSpaceOnUse" x1="629.6934" y1="369.584" x2="629.6934" y2="351.4258">
			<stop  offset="0" style="stop-color:#B98E30"/>
			<stop  offset="0.0311" style="stop-color:#B98E30"/>
			<stop  offset="0.1149" style="stop-color:#C9A24B"/>
			<stop  offset="0.2346" style="stop-color:#DCBB6A"/>
			<stop  offset="0.3508" style="stop-color:#E9CC81"/>
			<stop  offset="0.4608" style="stop-color:#F1D68E"/>
			<stop  offset="0.5581" style="stop-color:#F4DA93"/>
			<stop  offset="0.7377" style="stop-color:#F4DA93"/>
			<stop  offset="0.8769" style="stop-color:#B98E30"/>
			<stop  offset="1" style="stop-color:#C9A14F"/>
		</linearGradient>
		<path fill="url(#SVGID_26_)" d="M634.59,351.426l0.143,5.783h-0.525c-0.248-1.451-0.863-2.617-1.838-3.5
			c-0.977-0.883-2.027-1.324-3.16-1.324c-0.877,0-1.57,0.23-2.078,0.697c-0.514,0.465-0.768,1.002-0.768,1.605
			c0,0.385,0.09,0.727,0.271,1.025c0.25,0.398,0.646,0.797,1.197,1.189c0.402,0.281,1.334,0.779,2.795,1.496
			c2.041,0.998,3.42,1.939,4.131,2.826c0.705,0.891,1.059,1.904,1.059,3.047c0,1.451-0.57,2.699-1.707,3.742
			c-1.139,1.047-2.582,1.57-4.336,1.57c-0.547,0-1.066-0.057-1.559-0.17c-0.486-0.107-1.1-0.318-1.84-0.625
			c-0.408-0.172-0.75-0.256-1.016-0.256c-0.223,0-0.459,0.084-0.709,0.256c-0.25,0.168-0.447,0.43-0.604,0.781h-0.477v-6.553h0.477
			c0.377,1.844,1.104,3.248,2.18,4.219c1.08,0.965,2.238,1.451,3.484,1.451c0.963,0,1.727-0.262,2.299-0.781
			c0.568-0.521,0.857-1.125,0.857-1.818c0-0.406-0.111-0.805-0.33-1.189s-0.553-0.746-0.998-1.094
			c-0.443-0.344-1.234-0.793-2.369-1.35c-1.586-0.777-2.727-1.438-3.426-1.982c-0.695-0.545-1.229-1.156-1.6-1.83
			c-0.377-0.674-0.563-1.418-0.563-2.225c0-1.385,0.512-2.561,1.533-3.533c1.021-0.971,2.307-1.459,3.863-1.459
			c0.564,0,1.113,0.068,1.648,0.205c0.404,0.102,0.893,0.293,1.471,0.568c0.582,0.277,0.986,0.416,1.219,0.416
			c0.221,0,0.4-0.068,0.527-0.205c0.131-0.137,0.25-0.463,0.363-0.984H634.59z"/>
	</g>
	<g id="Trusted">
		<path fill="#FFFFFF" d="M362.076,382.756h-3.129v-0.814v-0.824h8.118v0.813v0.826h-3.129v12.902h-0.926h-0.933V382.756z"/>
		<path fill="#FFFFFF" d="M373.721,381.117h0.936h3.369c1.123,0,1.956,0.293,2.495,0.889c0.539,0.59,0.807,1.502,0.807,2.738v-0.146
			c0,1.33-0.306,2.289-0.914,2.875c-0.407,0.404-0.988,0.666-1.753,0.797c0.824,0.059,1.391,0.27,1.713,0.617
			c0.378,0.42,0.583,1.23,0.597,2.43c0.017,0.875,0.051,1.609,0.117,2.199l0.04,0.338c0.044,0.379,0.091,0.703,0.14,0.971
			c0.049,0.271,0.109,0.545,0.185,0.824h-0.971h-0.978c-0.089-0.447-0.154-0.799-0.198-1.039c-0.04-0.25-0.067-0.455-0.079-0.605
			l-0.031-0.314c-0.056-0.602-0.088-1.271-0.1-2.004c-0.014-0.945-0.182-1.615-0.497-2.014c-0.317-0.396-0.84-0.596-1.563-0.596
			h-1.442h-0.009v6.582h-0.934h-0.929V381.117z M375.583,387.436h1.472c0.936,0,1.568-0.191,1.906-0.572
			c0.338-0.377,0.512-1.104,0.512-2.158v0.141c0-0.797-0.176-1.346-0.516-1.643c-0.348-0.299-0.978-0.447-1.901-0.447h-1.472
			V387.436z"/>
		<path fill="#FFFFFF" d="M395.901,391.967c0,1.293-0.317,2.264-0.947,2.904c-0.635,0.643-1.582,0.963-2.842,0.963
			c-1.274,0-2.228-0.32-2.86-0.963c-0.632-0.641-0.947-1.611-0.947-2.904v-10.85h0.926h0.931v10.307
			c0,0.969,0.159,1.676,0.467,2.123c0.314,0.447,0.805,0.672,1.483,0.672c0.684,0,1.176-0.221,1.479-0.654
			c0.301-0.438,0.451-1.152,0.451-2.141v-10.307h0.926h0.933V391.967z"/>
		<path fill="#FFFFFF" d="M408.548,385.334v-0.436c0-0.836-0.124-1.432-0.38-1.787c-0.25-0.355-0.679-0.533-1.276-0.533
			c-0.667,0-1.152,0.166-1.454,0.484c-0.298,0.326-0.448,0.848-0.448,1.57c0,0.582,0.131,1.033,0.395,1.346
			c0.266,0.32,0.849,0.736,1.761,1.248c1.412,0.801,2.345,1.488,2.793,2.064c0.439,0.576,0.66,1.369,0.66,2.379
			c0,1.389-0.329,2.43-0.989,3.121c-0.663,0.695-1.652,1.043-2.978,1.043c-1.414,0-2.419-0.354-3.003-1.061
			c-0.539-0.654-0.81-1.707-0.81-3.164l0.01-0.391v-0.438h1.892v0.438c-0.019,1.133,0.112,1.908,0.387,2.34
			c0.271,0.422,0.777,0.633,1.523,0.633c0.75,0,1.295-0.178,1.625-0.549c0.333-0.365,0.501-0.965,0.501-1.797
			c0-0.631-0.151-1.125-0.458-1.486c-0.301-0.348-0.971-0.814-2.006-1.404c-1.211-0.678-2.056-1.334-2.529-1.941
			c-0.467-0.605-0.703-1.344-0.703-2.209c0-1.291,0.315-2.254,0.952-2.9c0.637-0.643,1.594-0.963,2.87-0.963
			c1.337,0,2.268,0.299,2.795,0.887c0.487,0.547,0.735,1.463,0.742,2.744l-0.014,0.326v0.436H408.548z"/>
		<path fill="#FFFFFF" d="M419.916,382.756h-3.128v-0.814v-0.824h8.114v0.813v0.826h-3.124v12.902h-0.929h-0.933V382.756z"/>
		<path fill="#FFFFFF" d="M431.542,395.658v-14.541h6.085v0.813v0.826h-4.226v4.607h3.976v0.816V389h-3.976v5.023h4.352v0.813v0.822
			H431.542z"/>
		<path fill="#FFFFFF" d="M444.681,381.117h0.926h2.39c1.563,0,2.692,0.338,3.39,1.01c0.695,0.67,1.045,1.77,1.045,3.289v5.668
			c0,1.613-0.268,2.777-0.8,3.498c-0.53,0.715-1.405,1.076-2.609,1.076h-3.416h-0.926V381.117z M446.538,394.023h1.888
			c0.801,0,1.363-0.217,1.673-0.643c0.317-0.426,0.476-1.18,0.476-2.266v-5.674c0-0.998-0.173-1.701-0.519-2.092
			c-0.343-0.396-0.954-0.594-1.831-0.594h-1.688V394.023z"/>
		<path fill="#FFFFFF" d="M468.609,381.117h0.924h0.934v14.541h-0.924h-0.934V381.117z"/>
		<path fill="#FFFFFF" d="M479.447,395.658h-0.882h-0.882v-14.541h1.459h1.472l3.511,12.555v-12.555h0.856h0.865v14.541h-1.448
			h-1.468l-3.484-12.488V395.658z"/>
		<path fill="#FFFFFF" d="M492.26,381.117h0.98h0.99l2.152,12.387h0.002l2.078-12.387h0.9h0.904l-2.858,14.541h-1.136h-1.146
			L492.26,381.117z"/>
		<path fill="#FFFFFF" d="M506.829,395.658v-14.541h6.087v0.813v0.826h-4.225v4.607h3.978v0.816V389h-3.978v5.023h4.35v0.813v0.822
			H506.829z"/>
		<path fill="#FFFFFF" d="M525.301,385.334v-0.436c0-0.836-0.125-1.432-0.377-1.787c-0.254-0.355-0.682-0.533-1.281-0.533
			c-0.666,0-1.148,0.166-1.445,0.484c-0.305,0.326-0.453,0.848-0.453,1.57c0,0.582,0.133,1.033,0.396,1.346
			c0.264,0.32,0.846,0.736,1.762,1.248c1.408,0.801,2.34,1.488,2.787,2.064c0.445,0.576,0.664,1.369,0.664,2.379
			c0,1.389-0.33,2.43-0.992,3.121c-0.66,0.695-1.652,1.043-2.975,1.043c-1.416,0-2.416-0.354-3.004-1.061
			c-0.535-0.654-0.807-1.707-0.807-3.164l0.012-0.391v-0.438h1.883v0.438c-0.012,1.133,0.117,1.908,0.389,2.34
			c0.275,0.422,0.785,0.633,1.527,0.633c0.75,0,1.291-0.178,1.627-0.549c0.332-0.365,0.5-0.965,0.5-1.797
			c0-0.631-0.154-1.125-0.459-1.486c-0.301-0.348-0.969-0.814-2.01-1.404c-1.209-0.678-2.053-1.334-2.525-1.941
			c-0.469-0.605-0.703-1.344-0.703-2.209c0-1.291,0.32-2.254,0.955-2.9c0.633-0.643,1.592-0.963,2.867-0.963
			c1.336,0,2.27,0.299,2.797,0.887c0.484,0.547,0.732,1.463,0.74,2.744l-0.012,0.326v0.436H525.301z"/>
		<path fill="#FFFFFF" d="M536.67,382.756h-3.129v-0.814v-0.824h8.117v0.813v0.826h-3.127v12.902h-0.926h-0.936V382.756z"/>
		<path fill="#FFFFFF" d="M550.039,395.658h-0.854h-0.869v-14.541h1.51h1.514l2.463,11.717h-0.008l2.387-11.717h1.512h1.516v14.541
			h-0.861h-0.865v-12.627h-0.004l-2.777,12.627h-0.936h-0.934l-2.799-12.664h0.006V395.658z"/>
		<path fill="#FFFFFF" d="M566.479,395.658v-14.541h6.092v0.813v0.826h-4.23v4.607h3.975v0.816V389h-3.975v5.023h4.352v0.813v0.822
			H566.479z"/>
		<path fill="#FFFFFF" d="M581.285,395.658h-0.881h-0.881v-14.541h1.459h1.469l3.512,12.555v-12.555h0.863h0.859v14.541h-1.453
			h-1.457l-3.49-12.488V395.658z"/>
		<path fill="#FFFFFF" d="M597.408,382.756h-3.131v-0.814v-0.824h8.119v0.813v0.826h-3.127v12.902h-0.926h-0.936V382.756z"/>
		<path fill="#FFFFFF" d="M614.42,385.334v-0.436c0-0.836-0.127-1.432-0.383-1.787c-0.252-0.355-0.682-0.533-1.279-0.533
			c-0.67,0-1.15,0.166-1.451,0.484c-0.299,0.326-0.447,0.848-0.447,1.57c0,0.582,0.127,1.033,0.396,1.346
			c0.26,0.32,0.846,0.736,1.756,1.248c1.414,0.801,2.346,1.488,2.795,2.064c0.439,0.576,0.662,1.369,0.662,2.379
			c0,1.389-0.33,2.43-0.992,3.121c-0.658,0.695-1.652,1.043-2.975,1.043c-1.42,0-2.42-0.354-3.004-1.061
			c-0.537-0.654-0.809-1.707-0.809-3.164l0.01-0.391v-0.438h1.889v0.438c-0.016,1.133,0.113,1.908,0.389,2.34
			c0.271,0.422,0.779,0.633,1.525,0.633c0.748,0,1.291-0.178,1.625-0.549c0.334-0.365,0.498-0.965,0.498-1.797
			c0-0.631-0.15-1.125-0.453-1.486c-0.303-0.348-0.977-0.814-2.012-1.404c-1.211-0.678-2.053-1.334-2.523-1.941
			c-0.471-0.605-0.707-1.344-0.707-2.209c0-1.291,0.316-2.254,0.955-2.9c0.633-0.643,1.592-0.963,2.869-0.963
			c1.34,0,2.266,0.299,2.793,0.887c0.488,0.547,0.736,1.463,0.742,2.744l-0.016,0.326v0.436H614.42z"/>
	</g>
</g>
</svg>
